<?xml version="1.0" encoding="UTF-8" standalone="no"?>
<!-- Created with Inkscape (http://www.inkscape.org/) -->

<svg
   xmlns:dc="http://purl.org/dc/elements/1.1/"
   xmlns:cc="http://creativecommons.org/ns#"
   xmlns:rdf="http://www.w3.org/1999/02/22-rdf-syntax-ns#"
   xmlns:svg="http://www.w3.org/2000/svg"
   xmlns="http://www.w3.org/2000/svg"
   xmlns:sodipodi="http://sodipodi.sourceforge.net/DTD/sodipodi-0.dtd"
   xmlns:inkscape="http://www.inkscape.org/namespaces/inkscape"
   width="260.66928"
   height="40"
   viewBox="0 0 68.968746 10.583333"
   version="1.1"
   id="svg8"
   inkscape:version="0.92.4 (5da689c313, 2019-01-14)"
   sodipodi:docname="food-logo.svg">
  <defs
     id="defs2" />
  <sodipodi:namedview
     id="base"
     pagecolor="#ffffff"
     bordercolor="#666666"
     borderopacity="1.0"
     inkscape:pageopacity="0.0"
     inkscape:pageshadow="2"
     inkscape:zoom="3.959798"
     inkscape:cx="157.96193"
     inkscape:cy="45.662995"
     inkscape:document-units="mm"
     inkscape:current-layer="g833"
     showgrid="false"
     units="px"
     inkscape:window-width="1920"
     inkscape:window-height="1001"
     inkscape:window-x="-9"
     inkscape:window-y="-9"
     inkscape:window-maximized="1" />
  <metadata
     id="metadata5">
    <rdf:RDF>
      <cc:Work
         rdf:about="">
        <dc:format>image/svg+xml</dc:format>
        <dc:type
           rdf:resource="http://purl.org/dc/dcmitype/StillImage" />
        <dc:title></dc:title>
      </cc:Work>
    </rdf:RDF>
  </metadata>
  <g
     inkscape:label="Layer 1"
     inkscape:groupmode="layer"
     id="layer1"
     transform="translate(0,-286.41667)">
    <g
       id="g833"
       transform="translate(-6.8669523e-8,2.2083517)">
      <g
         id="g1007">
        <g
           id="g976">
          <g
             id="g946">
            <path
               d="m 5.2885669,287.21864 q -0.3327962,0 -0.4099663,0.16881 -0.057878,0.1254 -0.1109321,0.49196 -0.048231,0.36656 -0.048231,0.66559 0,0.17846 0.1157553,0.24598 0.1157552,0.0675 0.434082,0.0675 0.2122179,0 0.3135037,-0.0772 0.1012858,-0.0772 0.1398709,-0.26045 0.1109321,-0.52572 0.4533746,-0.52572 0.5884223,0 0.5884223,1.40835 0,0.89228 -0.2556261,1.31189 -0.1543403,0.25563 -0.4244358,0.25563 -0.2845649,0 -0.3279731,-0.38103 -0.024116,-0.24598 -0.062701,-0.34726 -0.033762,-0.10129 -0.1350478,-0.19293 -0.1591634,-0.14951 -0.4630208,-0.14951 -0.217041,0 -0.2942112,0.0772 -0.07717,0.0772 -0.067524,0.29421 0,0.0386 -0.00482,0.44855 0,0.8344 0.1736328,1.01768 0.057878,0.0724 0.1157552,0.0965 0.062701,0.0193 0.3183269,0.0579 0.1254015,0.0193 0.2122179,0.13022 0.086816,0.11094 0.086816,0.25563 0,0.37138 -0.4340821,0.47749 -0.6270074,0.14952 -1.7604438,0.14952 -0.9935656,0 -1.36977,-0.11576 -0.1688097,-0.053 -0.2749186,-0.19292 -0.106109,-0.13987 -0.106109,-0.30868 0,-0.21222 0.1543403,-0.34245 0.038585,-0.0289 0.2652724,-0.12057 0.2700954,-0.10611 0.3231499,-0.49196 0.086816,-0.59325 0.086816,-2.70578 0,-0.91157 -0.062701,-1.18167 -0.062701,-0.2701 -0.3038574,-0.3762 -0.2411567,-0.10611 -0.3183269,-0.18328 -0.072347,-0.082 -0.072347,-0.23151 0,-0.21222 0.2073948,-0.35209 0.2073947,-0.1447 0.5112522,-0.1447 0.1929253,0 0.5643066,0.0289 0.7861708,0.0627 1.8810222,0.0627 1.7507976,0 2.3585124,-0.0965 0.081993,-0.01 0.1254015,-0.01 0.1688097,0 0.32315,0.19293 0.4244358,0.54019 0.4244358,1.19614 0,0.29903 -0.1398709,0.47749 -0.1398709,0.17845 -0.3665582,0.17845 -0.1688097,0 -0.2556261,-0.0675 -0.086816,-0.0675 -0.4437283,-0.47267 -0.217041,-0.2508 -0.5257216,-0.32797 -0.3038574,-0.0772 -1.1382596,-0.10129 z"
               style="font-style:normal;font-variant:normal;font-weight:normal;font-stretch:normal;font-size:9.87777805px;line-height:1.25;font-family:'Cooper Black';-inkscape-font-specification:'Cooper Black, Normal';font-variant-ligatures:normal;font-variant-caps:normal;font-variant-numeric:normal;font-feature-settings:normal;text-align:start;letter-spacing:0px;word-spacing:0px;writing-mode:lr-tb;text-anchor:start;fill:#ff5555;fill-opacity:1;stroke:none;stroke-width:0.26458332"
               id="path835"
               inkscape:connector-curvature="0" />
            <path
               d="m 11.889025,286.09003 q 1.239546,0 2.165587,0.709 0.627008,0.48714 1.017682,1.26366 0.381027,0.7717 0.381027,1.5434 0,1.13826 -0.752409,2.03537 -0.636653,0.76205 -1.663981,1.09485 -0.63183,0.20257 -1.268484,0.20257 -0.834402,0 -1.596457,-0.34727 -0.9212188,-0.41961 -1.4421173,-1.26848 -0.5064291,-0.81993 -0.5064291,-1.80868 0,-1.1479 0.6511231,-2.02571 0.5787761,-0.78135 1.5578723,-1.14791 0.655946,-0.2508 1.456586,-0.2508 z m -0.458197,1.38424 q -0.405144,0 -0.641477,0.36173 -0.183279,0.2701 -0.183279,0.64148 0,0.54501 0.221864,1.26366 0.221864,0.71383 0.559483,1.26849 0.149518,0.23633 0.366559,0.3762 0.221864,0.13987 0.448551,0.13987 0.366558,0 0.588422,-0.27492 0.226688,-0.27492 0.226688,-0.72347 0,-0.5836 -0.188103,-1.25884 -0.188102,-0.67523 -0.487136,-1.15272 -0.183279,-0.29422 -0.424436,-0.46303 -0.241157,-0.1688 -0.487136,-0.17845 z"
               style="font-style:normal;font-variant:normal;font-weight:normal;font-stretch:normal;font-size:9.87777805px;line-height:1.25;font-family:'Cooper Black';-inkscape-font-specification:'Cooper Black, Normal';font-variant-ligatures:normal;font-variant-caps:normal;font-variant-numeric:normal;font-feature-settings:normal;text-align:start;letter-spacing:0px;word-spacing:0px;writing-mode:lr-tb;text-anchor:start;fill:#ff5555;fill-opacity:1;stroke:none;stroke-width:0.26458332"
               id="path837"
               inkscape:connector-curvature="0" />
            <path
               d="m 19.579512,286.09003 q 1.239545,0 2.165587,0.709 0.627007,0.48714 1.017681,1.26366 0.381028,0.7717 0.381028,1.5434 0,1.13826 -0.752409,2.03537 -0.636654,0.76205 -1.663981,1.09485 -0.631831,0.20257 -1.268485,0.20257 -0.834402,0 -1.596457,-0.34727 -0.921218,-0.41961 -1.442117,-1.26848 -0.506429,-0.81993 -0.506429,-1.80868 0,-1.1479 0.651123,-2.02571 0.578776,-0.78135 1.557872,-1.14791 0.655947,-0.2508 1.456587,-0.2508 z m -0.458198,1.38424 q -0.405143,0 -0.641477,0.36173 -0.183279,0.2701 -0.183279,0.64148 0,0.54501 0.221864,1.26366 0.221864,0.71383 0.559484,1.26849 0.149517,0.23633 0.366558,0.3762 0.221864,0.13987 0.448551,0.13987 0.366559,0 0.588423,-0.27492 0.226687,-0.27492 0.226687,-0.72347 0,-0.5836 -0.188102,-1.25884 -0.188102,-0.67523 -0.487137,-1.15272 -0.183279,-0.29422 -0.424435,-0.46303 -0.241157,-0.1688 -0.487137,-0.17845 z"
               style="font-style:normal;font-variant:normal;font-weight:normal;font-stretch:normal;font-size:9.87777805px;line-height:1.25;font-family:'Cooper Black';-inkscape-font-specification:'Cooper Black, Normal';font-variant-ligatures:normal;font-variant-caps:normal;font-variant-numeric:normal;font-feature-settings:normal;text-align:start;letter-spacing:0px;word-spacing:0px;writing-mode:lr-tb;text-anchor:start;fill:#ff5555;fill-opacity:1;stroke:none;stroke-width:0.26458332"
               id="path839"
               inkscape:connector-curvature="0" />
            <path
               d="m 25.59396,292.80865 h -0.347266 q -0.303858,0 -0.680062,0.0289 -0.236333,0.0193 -0.327973,0.0193 -0.32315,0 -0.525722,-0.14952 -0.202571,-0.14952 -0.202571,-0.39067 0,-0.16881 0.08682,-0.26045 0.09164,-0.0965 0.294211,-0.15434 0.192926,-0.0482 0.26045,-0.15434 0.06752,-0.11094 0.106108,-0.42444 0.03859,-0.36174 0.06752,-1.40836 0.03376,-1.04662 0.03376,-2.07877 0,-0.40514 -0.0627,-0.54019 -0.0627,-0.13504 -0.294212,-0.21704 -0.332796,-0.1254 -0.332796,-0.42926 0,-0.23633 0.226687,-0.36656 0.231511,-0.13504 0.641477,-0.13504 0.135048,0 0.318327,0.005 0.405143,0.0145 0.588422,0.0145 0.689709,0 1.557873,-0.0434 0.183279,-0.01 0.458197,-0.01 1.104498,0 1.745975,0.2508 0.95498,0.3762 1.437294,1.26366 0.429259,0.78135 0.429259,1.86173 0,0.54501 -0.159164,1.09485 -0.159163,0.54501 -0.429259,0.94533 -0.559483,0.81029 -1.543403,1.13826 -0.578776,0.19293 -1.234722,0.19293 l -0.583599,-0.0193 -0.501606,-0.0145 q -0.583599,-0.0193 -1.027327,-0.0193 z m 1.012858,-5.22827 v 3.7331 q 0,0.30386 0.130224,0.43409 0.130225,0.1254 0.434082,0.1254 1.408355,0 1.408355,-2.14147 0,-1.18167 -0.327973,-1.8328 -0.361735,-0.71864 -1.225076,-0.71864 -0.23151,0 -0.327973,0.0916 -0.09164,0.0916 -0.09164,0.30868 z"
               style="font-style:normal;font-variant:normal;font-weight:normal;font-stretch:normal;font-size:9.87777805px;line-height:1.25;font-family:'Cooper Black';-inkscape-font-specification:'Cooper Black, Normal';font-variant-ligatures:normal;font-variant-caps:normal;font-variant-numeric:normal;font-feature-settings:normal;text-align:start;letter-spacing:0px;word-spacing:0px;writing-mode:lr-tb;text-anchor:start;fill:#ff5555;fill-opacity:1;stroke:none;stroke-width:0.26458332"
               id="path841"
               inkscape:connector-curvature="0" />
            <path
               d="m 34.415471,286.09003 q 0.496783,0 1.302246,0.24598 0.09646,0.0289 0.15434,0.0289 0.04823,0 0.289388,-0.0868 0.07717,-0.0289 0.163987,-0.0289 0.32315,0 0.680062,0.51125 0.361735,0.51126 0.361735,0.97428 0,0.27009 -0.163987,0.4582 -0.159163,0.18327 -0.390674,0.18327 -0.192925,0 -0.313503,-0.0772 -0.120579,-0.0772 -0.530545,-0.45819 -0.578776,-0.54019 -1.13826,-0.54019 -0.270095,0 -0.434082,0.13022 -0.159163,0.13023 -0.159163,0.34244 0,0.41962 0.737939,0.63183 0.998389,0.29421 1.278131,0.42926 1.229899,0.59807 1.229899,1.76045 0,1.02732 -0.839225,1.67845 -0.858518,0.66559 -2.242757,0.66559 -0.617362,0 -1.302247,-0.14469 -0.684885,-0.14952 -0.988742,-0.34727 -0.23151,-0.15434 -0.419613,-0.67042 -0.183279,-0.52089 -0.183279,-1.01285 0,-0.23634 0.09646,-0.35692 0.120578,-0.15434 0.303857,-0.15434 0.183279,0 0.352089,0.18811 0.101286,0.10611 0.47749,0.68006 0.178456,0.27009 0.564307,0.44855 0.390674,0.17846 0.805463,0.17846 0.356912,0 0.578776,-0.13023 0.221865,-0.13505 0.221865,-0.34244 0,-0.19293 -0.173633,-0.3328 -0.173633,-0.13987 -0.564307,-0.26045 -0.689708,-0.21704 -1.051443,-0.39549 -0.361735,-0.18328 -0.675239,-0.4582 -0.762055,-0.67524 -0.762055,-1.53376 0,-0.42443 0.197749,-0.82475 0.197748,-0.40515 0.559483,-0.69936 0.810287,-0.68006 1.977485,-0.68006 z"
               style="font-style:normal;font-variant:normal;font-weight:normal;font-stretch:normal;font-size:9.87777805px;line-height:1.25;font-family:'Cooper Black';-inkscape-font-specification:'Cooper Black, Normal';font-variant-ligatures:normal;font-variant-caps:normal;font-variant-numeric:normal;font-feature-settings:normal;text-align:start;letter-spacing:0px;word-spacing:0px;writing-mode:lr-tb;text-anchor:start;fill:#ff5555;fill-opacity:1;stroke:none;stroke-width:0.26458332"
               id="path843"
               inkscape:connector-curvature="0" />
            <path
               d="m 39.942785,286.11897 q 1.504817,0 1.504817,0.62218 0,0.16881 -0.07717,0.27492 -0.07717,0.10611 -0.294211,0.23633 -0.188102,0.11576 -0.241157,0.30386 -0.04823,0.1881 -0.04823,0.76206 0,0.33762 0.125402,0.41479 0.07235,0.0482 0.217041,0.0579 0.149517,0.01 0.694531,0.01 0.496783,0 0.617361,-0.053 0.120578,-0.0531 0.120578,-0.26528 0,-0.63665 -0.05788,-0.88745 -0.05788,-0.25081 -0.226688,-0.34245 -0.212217,-0.12057 -0.279741,-0.20257 -0.06752,-0.0868 -0.06752,-0.22668 0,-0.19775 0.149517,-0.35692 0.149517,-0.16398 0.390674,-0.22186 0.501606,-0.12058 1.258838,-0.12058 0.887456,0 1.307069,0.16399 0.424436,0.15916 0.424436,0.5016 0,0.28939 -0.299035,0.43409 -0.188102,0.0868 -0.245979,0.16881 -0.05788,0.0772 -0.09164,0.29421 -0.01929,0.12058 -0.04823,1.07073 -0.02894,0.95016 -0.02894,1.50964 0,0.9791 0.07235,1.24437 0.03858,0.1447 0.08682,0.19293 0.04823,0.0482 0.303858,0.19292 0.183279,0.10129 0.183279,0.30868 0,0.36656 -0.438905,0.53537 -0.434082,0.16399 -1.413178,0.16399 -0.858518,0 -1.268485,-0.16881 -0.371381,-0.15434 -0.371381,-0.47749 0,-0.27492 0.284565,-0.42926 0.139871,-0.0772 0.188102,-0.15434 0.05306,-0.0772 0.101286,-0.28457 0.08682,-0.40514 0.08682,-0.99356 0,-0.30386 -0.09164,-0.37621 -0.08682,-0.0723 -0.463021,-0.0723 -0.863341,0 -1.099675,0.0965 -0.09646,0.0386 -0.120578,0.22669 -0.02894,0.23151 -0.02894,0.56913 0,0.54983 0.154341,0.79099 0.05305,0.0772 0.250803,0.19775 0.202571,0.11575 0.202571,0.38103 0,0.33762 -0.467844,0.51607 -0.467844,0.17846 -1.336008,0.17846 -0.790994,0 -1.2926,-0.16399 -0.217041,-0.0723 -0.342442,-0.20257 -0.120579,-0.13505 -0.120579,-0.29421 0,-0.15917 0.07717,-0.24598 0.07717,-0.0868 0.337619,-0.22187 0.135048,-0.0675 0.188102,-0.17363 0.05788,-0.10611 0.08682,-0.35691 0.07235,-0.56431 0.07235,-1.47588 0,-0.16881 -0.0048,-0.40032 -0.01929,-1.15755 -0.01929,-1.32154 0.0048,-0.41479 -0.07235,-0.54501 -0.07235,-0.13505 -0.390674,-0.29421 -0.212218,-0.10129 -0.212218,-0.30386 0,-0.48714 0.945334,-0.67524 0.549838,-0.11093 1.128614,-0.11093 z"
               style="font-style:normal;font-variant:normal;font-weight:normal;font-stretch:normal;font-size:9.87777805px;line-height:1.25;font-family:'Cooper Black';-inkscape-font-specification:'Cooper Black, Normal';font-variant-ligatures:normal;font-variant-caps:normal;font-variant-numeric:normal;font-feature-settings:normal;text-align:start;letter-spacing:0px;word-spacing:0px;writing-mode:lr-tb;text-anchor:start;fill:#ff5555;fill-opacity:1;stroke:none;stroke-width:0.26458332"
               id="path845"
               inkscape:connector-curvature="0" />
            <path
               d="m 52.029556,289.47587 0.911572,1.95337 q 0.130225,0.27009 0.217041,0.35691 0.08682,0.082 0.265272,0.11093 0.347266,0.0531 0.347266,0.35209 0,0.35209 -0.424436,0.50643 -0.424435,0.15434 -1.389062,0.15434 -1.090028,0 -1.61575,-0.0916 -0.241157,-0.0434 -0.385851,-0.17363 -0.139871,-0.13505 -0.139871,-0.32315 0,-0.1447 0.07235,-0.22187 0.07717,-0.082 0.279742,-0.14951 0.226687,-0.0772 0.226687,-0.26045 0,-0.32315 -0.390673,-0.38103 -0.419613,-0.0579 -1.181668,-0.0579 -0.641477,0 -0.766879,0.0772 -0.07717,0.0482 -0.135047,0.17364 -0.05788,0.1254 -0.05788,0.24115 0,0.10611 0.03859,0.13987 0.04341,0.0289 0.270096,0.10129 0.294211,0.0868 0.294211,0.34726 0,0.57396 -1.374593,0.57396 -0.781348,0 -1.147906,-0.10611 -0.337619,-0.10129 -0.337619,-0.44373 0,-0.14952 0.07235,-0.23151 0.07717,-0.082 0.270095,-0.14952 0.313504,-0.11093 0.472667,-0.30868 0.163987,-0.20257 0.463021,-0.85852 l 0.680062,-1.49034 q 0.376204,-0.81994 0.501606,-1.22508 0.130224,-0.40997 0.135048,-0.80064 0.0048,-0.41479 0.04823,-0.57395 0.04823,-0.16399 0.207395,-0.31833 0.332796,-0.33762 0.848871,-0.33762 0.487137,0 0.930865,0.38103 0.617361,0.5209 1.794206,3.03375 z m -3.356901,0.60771 h 0.945334 q 0.260449,0 0.260449,-0.11575 0,-0.15916 -0.361735,-0.78135 -0.163987,-0.28456 -0.250803,-0.38103 -0.08682,-0.0965 -0.183279,-0.0965 -0.173633,0 -0.289388,0.32315 -0.01929,0.0434 -0.139871,0.34244 -0.202572,0.49196 -0.202572,0.58843 0,0.12057 0.221865,0.12057 z"
               style="font-style:normal;font-variant:normal;font-weight:normal;font-stretch:normal;font-size:9.87777805px;line-height:1.25;font-family:'Cooper Black';-inkscape-font-specification:'Cooper Black, Normal';font-variant-ligatures:normal;font-variant-caps:normal;font-variant-numeric:normal;font-feature-settings:normal;text-align:start;letter-spacing:0px;word-spacing:0px;writing-mode:lr-tb;text-anchor:start;fill:#ff5555;fill-opacity:1;stroke:none;stroke-width:0.26458332"
               id="path847"
               inkscape:connector-curvature="0" />
            <path
               d="m 57.060086,288.33279 v 2.21382 q 0,0.74758 0.130224,0.96462 0.159164,0.25563 0.670416,0.25563 0.549837,0 0.868164,-0.24116 0.318327,-0.24116 0.443728,-0.75241 0.07235,-0.3135 0.327973,-0.3135 0.255626,0 0.41479,0.23151 0.163986,0.22669 0.163986,0.59324 0,0.59807 -0.443728,1.27813 -0.139871,0.21705 -0.24598,0.29422 -0.106109,0.082 -0.255626,0.082 l -1.070736,-0.13023 h -3.37137 q -0.332796,0 -0.467844,-0.0772 -0.197749,-0.11093 -0.197749,-0.33279 0,-0.13505 0.0627,-0.19775 0.06752,-0.0675 0.318327,-0.1881 0.274919,-0.13023 0.352089,-0.36656 0.0627,-0.19775 0.0627,-1.15273 0,-0.44373 -0.02412,-1.27813 -0.02412,-0.80064 -0.02894,-1.20578 0,-0.38585 -0.0627,-0.52572 -0.05788,-0.1447 -0.250803,-0.2074 -0.318326,-0.11093 -0.405143,-0.17846 -0.15434,-0.12057 -0.15434,-0.27491 0,-0.35209 0.583599,-0.53537 0.496783,-0.15917 1.331185,-0.15917 0.935688,0 1.398709,0.0965 0.598068,0.13022 0.598068,0.5209 0,0.15916 -0.08199,0.23633 -0.07717,0.0772 -0.385851,0.20739 -0.183279,0.082 -0.23151,0.27975 -0.04823,0.19774 -0.04823,0.86334 z"
               style="font-style:normal;font-variant:normal;font-weight:normal;font-stretch:normal;font-size:9.87777805px;line-height:1.25;font-family:'Cooper Black';-inkscape-font-specification:'Cooper Black, Normal';font-variant-ligatures:normal;font-variant-caps:normal;font-variant-numeric:normal;font-feature-settings:normal;text-align:start;letter-spacing:0px;word-spacing:0px;writing-mode:lr-tb;text-anchor:start;fill:#ff5555;fill-opacity:1;stroke:none;stroke-width:0.26458332"
               id="path849"
               inkscape:connector-curvature="0" />
            <path
               d="m 66.59542,289.47587 0.911573,1.95337 q 0.130224,0.27009 0.217041,0.35691 0.08682,0.082 0.265272,0.11093 0.347266,0.0531 0.347266,0.35209 0,0.35209 -0.424436,0.50643 -0.424436,0.15434 -1.389063,0.15434 -1.090028,0 -1.61575,-0.0916 -0.241156,-0.0434 -0.38585,-0.17363 -0.139871,-0.13505 -0.139871,-0.32315 0,-0.1447 0.07235,-0.22187 0.07717,-0.082 0.279742,-0.14951 0.226687,-0.0772 0.226687,-0.26045 0,-0.32315 -0.390674,-0.38103 -0.419613,-0.0579 -1.181668,-0.0579 -0.641476,0 -0.766878,0.0772 -0.07717,0.0482 -0.135048,0.17364 -0.05788,0.1254 -0.05788,0.24115 0,0.10611 0.03859,0.13987 0.04341,0.0289 0.270095,0.10129 0.294211,0.0868 0.294211,0.34726 0,0.57396 -1.374593,0.57396 -0.781347,0 -1.147906,-0.10611 -0.337619,-0.10129 -0.337619,-0.44373 0,-0.14952 0.07235,-0.23151 0.07717,-0.082 0.270096,-0.14952 0.313503,-0.11093 0.472667,-0.30868 0.163986,-0.20257 0.463021,-0.85852 l 0.680061,-1.49034 q 0.376205,-0.81994 0.501606,-1.22508 0.130225,-0.40997 0.135048,-0.80064 0.0048,-0.41479 0.04823,-0.57395 0.04823,-0.16399 0.207395,-0.31833 0.332796,-0.33762 0.848872,-0.33762 0.487136,0 0.930865,0.38103 0.617361,0.5209 1.794205,3.03375 z m -3.356901,0.60771 h 0.945334 q 0.26045,0 0.26045,-0.11575 0,-0.15916 -0.361735,-0.78135 -0.163987,-0.28456 -0.250803,-0.38103 -0.08682,-0.0965 -0.183279,-0.0965 -0.173633,0 -0.289388,0.32315 -0.01929,0.0434 -0.139871,0.34244 -0.202572,0.49196 -0.202572,0.58843 0,0.12057 0.221864,0.12057 z"
               style="font-style:normal;font-variant:normal;font-weight:normal;font-stretch:normal;font-size:9.87777805px;line-height:1.25;font-family:'Cooper Black';-inkscape-font-specification:'Cooper Black, Normal';font-variant-ligatures:normal;font-variant-caps:normal;font-variant-numeric:normal;font-feature-settings:normal;text-align:start;letter-spacing:0px;word-spacing:0px;writing-mode:lr-tb;text-anchor:start;fill:#ff5555;fill-opacity:1;stroke:none;stroke-width:0.26458332"
               id="path851"
               inkscape:connector-curvature="0" />
            <path
               d="m 4.7594001,287.21864 q -0.3327962,0 -0.4099664,0.16881 -0.057878,0.1254 -0.110932,0.49196 -0.048231,0.36656 -0.048231,0.66559 0,0.17846 0.1157552,0.24598 0.1157552,0.0675 0.4340821,0.0675 0.2122179,0 0.3135037,-0.0772 0.1012858,-0.0772 0.1398709,-0.26045 0.110932,-0.52572 0.4533745,-0.52572 0.5884224,0 0.5884224,1.40835 0,0.89228 -0.2556261,1.31189 -0.1543403,0.25563 -0.4244358,0.25563 -0.2845649,0 -0.3279731,-0.38103 -0.024116,-0.24598 -0.062701,-0.34726 -0.033762,-0.10129 -0.1350478,-0.19293 -0.1591634,-0.14951 -0.4630208,-0.14951 -0.2170411,0 -0.2942112,0.0772 -0.07717,0.0772 -0.067524,0.29421 0,0.0386 -0.00482,0.44855 0,0.8344 0.1736328,1.01768 0.057878,0.0724 0.1157552,0.0965 0.062701,0.0193 0.3183269,0.0579 0.1254014,0.0193 0.2122178,0.13022 0.086817,0.11094 0.086817,0.25563 0,0.37138 -0.4340821,0.47749 -0.6270074,0.14952 -1.7604438,0.14952 -0.9935656,0 -1.36977,-0.11576 -0.1688097,-0.053 -0.2749187,-0.19292 -0.1061089,-0.13987 -0.1061089,-0.30868 0,-0.21222 0.1543403,-0.34245 0.038585,-0.0289 0.2652723,-0.12057 0.2700955,-0.10611 0.32315,-0.49196 0.086816,-0.59325 0.086816,-2.70578 0,-0.91157 -0.062701,-1.18167 -0.062701,-0.2701 -0.3038575,-0.3762 -0.2411567,-0.10611 -0.3183268,-0.18328 -0.072347,-0.082 -0.072347,-0.23151 0,-0.21222 0.2073948,-0.35209 0.2073947,-0.1447 0.5112521,-0.1447 0.1929254,0 0.5643067,0.0289 0.7861708,0.0627 1.8810222,0.0627 1.7507976,0 2.3585124,-0.0965 0.081993,-0.01 0.1254015,-0.01 0.1688097,0 0.32315,0.19293 0.4244357,0.54019 0.4244357,1.19614 0,0.29903 -0.1398708,0.47749 -0.1398709,0.17845 -0.3665582,0.17845 -0.1688097,0 -0.2556261,-0.0675 -0.086816,-0.0675 -0.4437283,-0.47267 -0.217041,-0.2508 -0.5257216,-0.32797 -0.3038574,-0.0772 -1.1382596,-0.10129 z"
               style="font-style:normal;font-variant:normal;font-weight:normal;font-stretch:normal;font-size:9.87777805px;line-height:1.25;font-family:'Cooper Black';-inkscape-font-specification:'Cooper Black, Normal';font-variant-ligatures:normal;font-variant-caps:normal;font-variant-numeric:normal;font-feature-settings:normal;text-align:start;letter-spacing:0px;word-spacing:0px;writing-mode:lr-tb;text-anchor:start;fill:#ffe6d5;fill-opacity:1;stroke:none;stroke-width:0.26458332"
               id="path854"
               inkscape:connector-curvature="0" />
            <path
               d="m 11.359859,286.09003 q 1.239545,0 2.165587,0.709 0.627007,0.48714 1.017681,1.26366 0.381027,0.7717 0.381027,1.5434 0,1.13826 -0.752408,2.03537 -0.636654,0.76205 -1.663982,1.09485 -0.63183,0.20257 -1.268484,0.20257 -0.834402,0 -1.5964571,-0.34727 -0.9212186,-0.41961 -1.442117,-1.26848 -0.5064291,-0.81993 -0.5064291,-1.80868 0,-1.1479 0.6511231,-2.02571 0.5787761,-0.78135 1.5578722,-1.14791 0.6559459,-0.2508 1.4565869,-0.2508 z m -0.458198,1.38424 q -0.405143,0 -0.641477,0.36173 -0.183279,0.2701 -0.183279,0.64148 0,0.54501 0.221864,1.26366 0.221864,0.71383 0.559484,1.26849 0.149517,0.23633 0.366558,0.3762 0.221864,0.13987 0.448551,0.13987 0.366558,0 0.588423,-0.27492 0.226687,-0.27492 0.226687,-0.72347 0,-0.5836 -0.188102,-1.25884 -0.188103,-0.67523 -0.487137,-1.15272 -0.183279,-0.29422 -0.424436,-0.46303 -0.241156,-0.1688 -0.487136,-0.17845 z"
               style="font-style:normal;font-variant:normal;font-weight:normal;font-stretch:normal;font-size:9.87777805px;line-height:1.25;font-family:'Cooper Black';-inkscape-font-specification:'Cooper Black, Normal';font-variant-ligatures:normal;font-variant-caps:normal;font-variant-numeric:normal;font-feature-settings:normal;text-align:start;letter-spacing:0px;word-spacing:0px;writing-mode:lr-tb;text-anchor:start;fill:#ffe6d5;fill-opacity:1;stroke:none;stroke-width:0.26458332"
               id="path856"
               inkscape:connector-curvature="0" />
            <path
               d="m 19.050345,286.09003 q 1.239545,0 2.165587,0.709 0.627007,0.48714 1.017681,1.26366 0.381028,0.7717 0.381028,1.5434 0,1.13826 -0.752409,2.03537 -0.636654,0.76205 -1.663981,1.09485 -0.631831,0.20257 -1.268484,0.20257 -0.834403,0 -1.596458,-0.34727 -0.921218,-0.41961 -1.442117,-1.26848 -0.506429,-0.81993 -0.506429,-1.80868 0,-1.1479 0.651123,-2.02571 0.578776,-0.78135 1.557873,-1.14791 0.655946,-0.2508 1.456586,-0.2508 z m -0.458198,1.38424 q -0.405143,0 -0.641477,0.36173 -0.183279,0.2701 -0.183279,0.64148 0,0.54501 0.221865,1.26366 0.221864,0.71383 0.559483,1.26849 0.149517,0.23633 0.366558,0.3762 0.221864,0.13987 0.448552,0.13987 0.366558,0 0.588422,-0.27492 0.226687,-0.27492 0.226687,-0.72347 0,-0.5836 -0.188102,-1.25884 -0.188102,-0.67523 -0.487136,-1.15272 -0.18328,-0.29422 -0.424436,-0.46303 -0.241157,-0.1688 -0.487137,-0.17845 z"
               style="font-style:normal;font-variant:normal;font-weight:normal;font-stretch:normal;font-size:9.87777805px;line-height:1.25;font-family:'Cooper Black';-inkscape-font-specification:'Cooper Black, Normal';font-variant-ligatures:normal;font-variant-caps:normal;font-variant-numeric:normal;font-feature-settings:normal;text-align:start;letter-spacing:0px;word-spacing:0px;writing-mode:lr-tb;text-anchor:start;fill:#ffe6d5;fill-opacity:1;stroke:none;stroke-width:0.26458332"
               id="path858"
               inkscape:connector-curvature="0" />
            <path
               d="m 25.064793,292.80865 h -0.347266 q -0.303857,0 -0.680062,0.0289 -0.236333,0.0193 -0.327973,0.0193 -0.32315,0 -0.525721,-0.14952 -0.202572,-0.14952 -0.202572,-0.39067 0,-0.16881 0.08682,-0.26045 0.09164,-0.0965 0.294212,-0.15434 0.192925,-0.0482 0.260449,-0.15434 0.06752,-0.11094 0.106109,-0.42444 0.03859,-0.36174 0.06752,-1.40836 0.03376,-1.04662 0.03376,-2.07877 0,-0.40514 -0.0627,-0.54019 -0.0627,-0.13504 -0.294211,-0.21704 -0.332797,-0.1254 -0.332797,-0.42926 0,-0.23633 0.226688,-0.36656 0.23151,-0.13504 0.641476,-0.13504 0.135048,0 0.318327,0.005 0.405144,0.0145 0.588423,0.0145 0.689708,0 1.557872,-0.0434 0.183279,-0.01 0.458198,-0.01 1.104497,0 1.745974,0.2508 0.95498,0.3762 1.437294,1.26366 0.429259,0.78135 0.429259,1.86173 0,0.54501 -0.159164,1.09485 -0.159163,0.54501 -0.429259,0.94533 -0.559483,0.81029 -1.543402,1.13826 -0.578776,0.19293 -1.234723,0.19293 l -0.583599,-0.0193 -0.501606,-0.0145 q -0.583599,-0.0193 -1.027327,-0.0193 z m 1.012858,-5.22827 v 3.7331 q 0,0.30386 0.130224,0.43409 0.130225,0.1254 0.434083,0.1254 1.408355,0 1.408355,-2.14147 0,-1.18167 -0.327974,-1.8328 -0.361735,-0.71864 -1.225076,-0.71864 -0.23151,0 -0.327973,0.0916 -0.09164,0.0916 -0.09164,0.30868 z"
               style="font-style:normal;font-variant:normal;font-weight:normal;font-stretch:normal;font-size:9.87777805px;line-height:1.25;font-family:'Cooper Black';-inkscape-font-specification:'Cooper Black, Normal';font-variant-ligatures:normal;font-variant-caps:normal;font-variant-numeric:normal;font-feature-settings:normal;text-align:start;letter-spacing:0px;word-spacing:0px;writing-mode:lr-tb;text-anchor:start;fill:#ffe6d5;fill-opacity:1;stroke:none;stroke-width:0.26458332"
               id="path860"
               inkscape:connector-curvature="0" />
            <path
               d="m 33.886304,286.09003 q 0.496783,0 1.302246,0.24598 0.09646,0.0289 0.154341,0.0289 0.04823,0 0.289388,-0.0868 0.07717,-0.0289 0.163986,-0.0289 0.32315,0 0.680062,0.51125 0.361735,0.51126 0.361735,0.97428 0,0.27009 -0.163987,0.4582 -0.159163,0.18327 -0.390673,0.18327 -0.192926,0 -0.313504,-0.0772 -0.120578,-0.0772 -0.530545,-0.45819 -0.578776,-0.54019 -1.138259,-0.54019 -0.270096,0 -0.434082,0.13022 -0.159164,0.13023 -0.159164,0.34244 0,0.41962 0.73794,0.63183 0.998388,0.29421 1.27813,0.42926 1.229899,0.59807 1.229899,1.76045 0,1.02732 -0.839225,1.67845 -0.858518,0.66559 -2.242757,0.66559 -0.617361,0 -1.302246,-0.14469 -0.684885,-0.14952 -0.988743,-0.34727 -0.23151,-0.15434 -0.419612,-0.67042 -0.18328,-0.52089 -0.18328,-1.01285 0,-0.23634 0.09646,-0.35692 0.120578,-0.15434 0.303858,-0.15434 0.183279,0 0.352088,0.18811 0.101286,0.10611 0.477491,0.68006 0.178456,0.27009 0.564306,0.44855 0.390674,0.17846 0.805464,0.17846 0.356911,0 0.578776,-0.13023 0.221864,-0.13505 0.221864,-0.34244 0,-0.19293 -0.173633,-0.3328 -0.173633,-0.13987 -0.564307,-0.26045 -0.689708,-0.21704 -1.051443,-0.39549 -0.361735,-0.18328 -0.675239,-0.4582 -0.762055,-0.67524 -0.762055,-1.53376 0,-0.42443 0.197749,-0.82475 0.197748,-0.40515 0.559483,-0.69936 0.810287,-0.68006 1.977485,-0.68006 z"
               style="font-style:normal;font-variant:normal;font-weight:normal;font-stretch:normal;font-size:9.87777805px;line-height:1.25;font-family:'Cooper Black';-inkscape-font-specification:'Cooper Black, Normal';font-variant-ligatures:normal;font-variant-caps:normal;font-variant-numeric:normal;font-feature-settings:normal;text-align:start;letter-spacing:0px;word-spacing:0px;writing-mode:lr-tb;text-anchor:start;fill:#ffe6d5;fill-opacity:1;stroke:none;stroke-width:0.26458332"
               id="path862"
               inkscape:connector-curvature="0" />
            <path
               d="m 39.413618,286.11897 q 1.504818,0 1.504818,0.62218 0,0.16881 -0.07717,0.27492 -0.07717,0.10611 -0.294211,0.23633 -0.188102,0.11576 -0.241156,0.30386 -0.04823,0.1881 -0.04823,0.76206 0,0.33762 0.125402,0.41479 0.07235,0.0482 0.217041,0.0579 0.149517,0.01 0.694531,0.01 0.496783,0 0.617361,-0.053 0.120579,-0.0531 0.120579,-0.26528 0,-0.63665 -0.05788,-0.88745 -0.05788,-0.25081 -0.226687,-0.34245 -0.212218,-0.12057 -0.279742,-0.20257 -0.06752,-0.0868 -0.06752,-0.22668 0,-0.19775 0.149517,-0.35692 0.149517,-0.16398 0.390674,-0.22186 0.501606,-0.12058 1.258838,-0.12058 0.887457,0 1.307069,0.16399 0.424436,0.15916 0.424436,0.5016 0,0.28939 -0.299034,0.43409 -0.188103,0.0868 -0.24598,0.16881 -0.05788,0.0772 -0.09164,0.29421 -0.01929,0.12058 -0.04823,1.07073 -0.02894,0.95016 -0.02894,1.50964 0,0.9791 0.07235,1.24437 0.03859,0.1447 0.08682,0.19293 0.04823,0.0482 0.303857,0.19292 0.183279,0.10129 0.183279,0.30868 0,0.36656 -0.438905,0.53537 -0.434082,0.16399 -1.413178,0.16399 -0.858518,0 -1.268485,-0.16881 -0.371381,-0.15434 -0.371381,-0.47749 0,-0.27492 0.284565,-0.42926 0.139871,-0.0772 0.188102,-0.15434 0.05306,-0.0772 0.101286,-0.28457 0.08682,-0.40514 0.08682,-0.99356 0,-0.30386 -0.09164,-0.37621 -0.08682,-0.0723 -0.463021,-0.0723 -0.863341,0 -1.099674,0.0965 -0.09646,0.0386 -0.120579,0.22669 -0.02894,0.23151 -0.02894,0.56913 0,0.54983 0.154341,0.79099 0.05305,0.0772 0.250803,0.19775 0.202571,0.11575 0.202571,0.38103 0,0.33762 -0.467844,0.51607 -0.467844,0.17846 -1.336008,0.17846 -0.790994,0 -1.2926,-0.16399 -0.217041,-0.0723 -0.342442,-0.20257 -0.120578,-0.13505 -0.120578,-0.29421 0,-0.15917 0.07717,-0.24598 0.07717,-0.0868 0.337619,-0.22187 0.135048,-0.0675 0.188102,-0.17363 0.05788,-0.10611 0.08682,-0.35691 0.07235,-0.56431 0.07235,-1.47588 0,-0.16881 -0.0048,-0.40032 -0.01929,-1.15755 -0.01929,-1.32154 0.0048,-0.41479 -0.07235,-0.54501 -0.07235,-0.13505 -0.390674,-0.29421 -0.212218,-0.10129 -0.212218,-0.30386 0,-0.48714 0.945335,-0.67524 0.549837,-0.11093 1.128613,-0.11093 z"
               style="font-style:normal;font-variant:normal;font-weight:normal;font-stretch:normal;font-size:9.87777805px;line-height:1.25;font-family:'Cooper Black';-inkscape-font-specification:'Cooper Black, Normal';font-variant-ligatures:normal;font-variant-caps:normal;font-variant-numeric:normal;font-feature-settings:normal;text-align:start;letter-spacing:0px;word-spacing:0px;writing-mode:lr-tb;text-anchor:start;fill:#ffe6d5;fill-opacity:1;stroke:none;stroke-width:0.26458332"
               id="path864"
               inkscape:connector-curvature="0" />
            <path
               d="m 51.500389,289.47587 0.911572,1.95337 q 0.130225,0.27009 0.217041,0.35691 0.08682,0.082 0.265273,0.11093 0.347265,0.0531 0.347265,0.35209 0,0.35209 -0.424436,0.50643 -0.424435,0.15434 -1.389062,0.15434 -1.090028,0 -1.61575,-0.0916 -0.241157,-0.0434 -0.385851,-0.17363 -0.13987,-0.13505 -0.13987,-0.32315 0,-0.1447 0.07235,-0.22187 0.07717,-0.082 0.279741,-0.14951 0.226688,-0.0772 0.226688,-0.26045 0,-0.32315 -0.390674,-0.38103 -0.419613,-0.0579 -1.181668,-0.0579 -0.641477,0 -0.766878,0.0772 -0.07717,0.0482 -0.135048,0.17364 -0.05788,0.1254 -0.05788,0.24115 0,0.10611 0.03858,0.13987 0.04341,0.0289 0.270096,0.10129 0.294211,0.0868 0.294211,0.34726 0,0.57396 -1.374593,0.57396 -0.781348,0 -1.147906,-0.10611 -0.337619,-0.10129 -0.337619,-0.44373 0,-0.14952 0.07235,-0.23151 0.07717,-0.082 0.270095,-0.14952 0.313504,-0.11093 0.472667,-0.30868 0.163987,-0.20257 0.463021,-0.85852 l 0.680062,-1.49034 q 0.376204,-0.81994 0.501606,-1.22508 0.130225,-0.40997 0.135048,-0.80064 0.0048,-0.41479 0.04823,-0.57395 0.04823,-0.16399 0.207395,-0.31833 0.332796,-0.33762 0.848871,-0.33762 0.487137,0 0.930865,0.38103 0.617361,0.5209 1.794206,3.03375 z m -3.356901,0.60771 h 0.945334 q 0.260449,0 0.260449,-0.11575 0,-0.15916 -0.361735,-0.78135 -0.163986,-0.28456 -0.250803,-0.38103 -0.08682,-0.0965 -0.183279,-0.0965 -0.173633,0 -0.289388,0.32315 -0.01929,0.0434 -0.139871,0.34244 -0.202571,0.49196 -0.202571,0.58843 0,0.12057 0.221864,0.12057 z"
               style="font-style:normal;font-variant:normal;font-weight:normal;font-stretch:normal;font-size:9.87777805px;line-height:1.25;font-family:'Cooper Black';-inkscape-font-specification:'Cooper Black, Normal';font-variant-ligatures:normal;font-variant-caps:normal;font-variant-numeric:normal;font-feature-settings:normal;text-align:start;letter-spacing:0px;word-spacing:0px;writing-mode:lr-tb;text-anchor:start;fill:#ffe6d5;fill-opacity:1;stroke:none;stroke-width:0.26458332"
               id="path866"
               inkscape:connector-curvature="0" />
            <path
               d="m 56.530919,288.33279 v 2.21382 q 0,0.74758 0.130224,0.96462 0.159164,0.25563 0.670416,0.25563 0.549837,0 0.868164,-0.24116 0.318327,-0.24116 0.443728,-0.75241 0.07235,-0.3135 0.327974,-0.3135 0.255626,0 0.414789,0.23151 0.163987,0.22669 0.163987,0.59324 0,0.59807 -0.443729,1.27813 -0.139871,0.21705 -0.24598,0.29422 -0.106108,0.082 -0.255626,0.082 l -1.070735,-0.13023 H 54.16276 q -0.332796,0 -0.467844,-0.0772 -0.197748,-0.11093 -0.197748,-0.33279 0,-0.13505 0.0627,-0.19775 0.06752,-0.0675 0.318327,-0.1881 0.274919,-0.13023 0.352089,-0.36656 0.0627,-0.19775 0.0627,-1.15273 0,-0.44373 -0.02412,-1.27813 -0.02412,-0.80064 -0.02894,-1.20578 0,-0.38585 -0.0627,-0.52572 -0.05788,-0.1447 -0.250803,-0.2074 -0.318327,-0.11093 -0.405144,-0.17846 -0.15434,-0.12057 -0.15434,-0.27491 0,-0.35209 0.583599,-0.53537 0.496783,-0.15917 1.331185,-0.15917 0.935688,0 1.398709,0.0965 0.598069,0.13022 0.598069,0.5209 0,0.15916 -0.08199,0.23633 -0.07717,0.0772 -0.38585,0.20739 -0.18328,0.082 -0.231511,0.27975 -0.04823,0.19774 -0.04823,0.86334 z"
               style="font-style:normal;font-variant:normal;font-weight:normal;font-stretch:normal;font-size:9.87777805px;line-height:1.25;font-family:'Cooper Black';-inkscape-font-specification:'Cooper Black, Normal';font-variant-ligatures:normal;font-variant-caps:normal;font-variant-numeric:normal;font-feature-settings:normal;text-align:start;letter-spacing:0px;word-spacing:0px;writing-mode:lr-tb;text-anchor:start;fill:#ffe6d5;fill-opacity:1;stroke:none;stroke-width:0.26458332"
               id="path868"
               inkscape:connector-curvature="0" />
            <path
               d="m 66.066254,289.47587 0.911572,1.95337 q 0.130224,0.27009 0.217041,0.35691 0.08682,0.082 0.265272,0.11093 0.347266,0.0531 0.347266,0.35209 0,0.35209 -0.424436,0.50643 -0.424436,0.15434 -1.389062,0.15434 -1.090029,0 -1.61575,-0.0916 -0.241157,-0.0434 -0.385851,-0.17363 -0.139871,-0.13505 -0.139871,-0.32315 0,-0.1447 0.07235,-0.22187 0.07717,-0.082 0.279742,-0.14951 0.226687,-0.0772 0.226687,-0.26045 0,-0.32315 -0.390674,-0.38103 -0.419612,-0.0579 -1.181667,-0.0579 -0.641477,0 -0.766879,0.0772 -0.07717,0.0482 -0.135048,0.17364 -0.05788,0.1254 -0.05788,0.24115 0,0.10611 0.03859,0.13987 0.04341,0.0289 0.270095,0.10129 0.294212,0.0868 0.294212,0.34726 0,0.57396 -1.374594,0.57396 -0.781347,0 -1.147905,-0.10611 -0.33762,-0.10129 -0.33762,-0.44373 0,-0.14952 0.07235,-0.23151 0.07717,-0.082 0.270096,-0.14952 0.313503,-0.11093 0.472667,-0.30868 0.163986,-0.20257 0.463021,-0.85852 l 0.680062,-1.49034 q 0.376204,-0.81994 0.501606,-1.22508 0.130224,-0.40997 0.135047,-0.80064 0.0048,-0.41479 0.04823,-0.57395 0.04823,-0.16399 0.207394,-0.31833 0.332797,-0.33762 0.848872,-0.33762 0.487136,0 0.930865,0.38103 0.617361,0.5209 1.794206,3.03375 z m -3.356902,0.60771 h 0.945335 q 0.260449,0 0.260449,-0.11575 0,-0.15916 -0.361735,-0.78135 -0.163987,-0.28456 -0.250803,-0.38103 -0.08682,-0.0965 -0.183279,-0.0965 -0.173633,0 -0.289388,0.32315 -0.01929,0.0434 -0.139871,0.34244 -0.202572,0.49196 -0.202572,0.58843 0,0.12057 0.221864,0.12057 z"
               style="font-style:normal;font-variant:normal;font-weight:normal;font-stretch:normal;font-size:9.87777805px;line-height:1.25;font-family:'Cooper Black';-inkscape-font-specification:'Cooper Black, Normal';font-variant-ligatures:normal;font-variant-caps:normal;font-variant-numeric:normal;font-feature-settings:normal;text-align:start;letter-spacing:0px;word-spacing:0px;writing-mode:lr-tb;text-anchor:start;fill:#ffe6d5;fill-opacity:1;stroke:none;stroke-width:0.26458332"
               id="path870"
               inkscape:connector-curvature="0" />
            <path
               d="m 4.2302336,287.21864 q -0.3327962,0 -0.4099664,0.16881 -0.057878,0.1254 -0.1109321,0.49196 -0.048231,0.36656 -0.048231,0.66559 0,0.17846 0.1157552,0.24598 0.1157552,0.0675 0.4340821,0.0675 0.2122178,0 0.3135037,-0.0772 0.1012858,-0.0772 0.1398708,-0.26045 0.1109321,-0.52572 0.4533746,-0.52572 0.5884223,0 0.5884223,1.40835 0,0.89228 -0.255626,1.31189 -0.1543403,0.25563 -0.4244358,0.25563 -0.2845649,0 -0.3279731,-0.38103 -0.024116,-0.24598 -0.062701,-0.34726 -0.033762,-0.10129 -0.1350477,-0.19293 -0.1591634,-0.14951 -0.4630209,-0.14951 -0.217041,0 -0.2942111,0.0772 -0.07717,0.0772 -0.067524,0.29421 0,0.0386 -0.00482,0.44855 0,0.8344 0.1736328,1.01768 0.057878,0.0724 0.1157552,0.0965 0.062701,0.0193 0.3183268,0.0579 0.1254015,0.0193 0.2122179,0.13022 0.086816,0.11094 0.086816,0.25563 0,0.37138 -0.434082,0.47749 -0.6270074,0.14952 -1.7604439,0.14952 -0.9935655,0 -1.36977,-0.11576 -0.16880964,-0.053 -0.27491859,-0.19292 -0.10610894,-0.13987 -0.10610894,-0.30868 0,-0.21222 0.15434028,-0.34245 0.0385851,-0.0289 0.26527235,-0.12057 0.2700955,-0.10611 0.32315,-0.49196 0.086816,-0.59325 0.086816,-2.70578 0,-0.91157 -0.062701,-1.18167 -0.062701,-0.2701 -0.3038574,-0.3762 -0.24115667,-0.10611 -0.31832681,-0.18328 -0.072347,-0.082 -0.072347,-0.23151 0,-0.21222 0.20739475,-0.35209 0.20739476,-0.1447 0.51125216,-0.1447 0.1929254,0 0.5643067,0.0289 0.7861708,0.0627 1.8810222,0.0627 1.7507975,0 2.3585124,-0.0965 0.081993,-0.01 0.1254015,-0.01 0.1688097,0 0.3231499,0.19293 0.4244358,0.54019 0.4244358,1.19614 0,0.29903 -0.1398709,0.47749 -0.1398708,0.17845 -0.3665581,0.17845 -0.1688097,0 -0.2556261,-0.0675 -0.086816,-0.0675 -0.4437283,-0.47267 -0.2170411,-0.2508 -0.5257216,-0.32797 -0.3038575,-0.0772 -1.1382596,-0.10129 z"
               style="font-style:normal;font-variant:normal;font-weight:normal;font-stretch:normal;font-size:9.87777805px;line-height:1.25;font-family:'Cooper Black';-inkscape-font-specification:'Cooper Black, Normal';font-variant-ligatures:normal;font-variant-caps:normal;font-variant-numeric:normal;font-feature-settings:normal;text-align:start;letter-spacing:0px;word-spacing:0px;writing-mode:lr-tb;text-anchor:start;fill:#ff5555;fill-opacity:1;stroke:none;stroke-width:0.26458332"
               id="path873"
               inkscape:connector-curvature="0" />
            <path
               d="m 10.830692,286.09003 q 1.239545,0 2.165587,0.709 0.627007,0.48714 1.017681,1.26366 0.381028,0.7717 0.381028,1.5434 0,1.13826 -0.752409,2.03537 -0.636654,0.76205 -1.663981,1.09485 -0.631831,0.20257 -1.268484,0.20257 -0.8344025,0 -1.5964576,-0.34727 -0.9212186,-0.41961 -1.442117,-1.26848 -0.5064291,-0.81993 -0.5064291,-1.80868 0,-1.1479 0.6511231,-2.02571 0.578776,-0.78135 1.5578722,-1.14791 0.6559464,-0.2508 1.4565864,-0.2508 z m -0.458198,1.38424 q -0.4051429,0 -0.6414765,0.36173 -0.1832791,0.2701 -0.1832791,0.64148 0,0.54501 0.2218642,1.26366 0.2218641,0.71383 0.5594834,1.26849 0.149517,0.23633 0.366558,0.3762 0.221864,0.13987 0.448552,0.13987 0.366558,0 0.588422,-0.27492 0.226687,-0.27492 0.226687,-0.72347 0,-0.5836 -0.188102,-1.25884 -0.188102,-0.67523 -0.487136,-1.15272 -0.183279,-0.29422 -0.424436,-0.46303 -0.241157,-0.1688 -0.487137,-0.17845 z"
               style="font-style:normal;font-variant:normal;font-weight:normal;font-stretch:normal;font-size:9.87777805px;line-height:1.25;font-family:'Cooper Black';-inkscape-font-specification:'Cooper Black, Normal';font-variant-ligatures:normal;font-variant-caps:normal;font-variant-numeric:normal;font-feature-settings:normal;text-align:start;letter-spacing:0px;word-spacing:0px;writing-mode:lr-tb;text-anchor:start;fill:#ff5555;fill-opacity:1;stroke:none;stroke-width:0.26458332"
               id="path875"
               inkscape:connector-curvature="0" />
            <path
               d="m 18.521178,286.09003 q 1.239546,0 2.165588,0.709 0.627007,0.48714 1.017681,1.26366 0.381027,0.7717 0.381027,1.5434 0,1.13826 -0.752409,2.03537 -0.636653,0.76205 -1.663981,1.09485 -0.63183,0.20257 -1.268484,0.20257 -0.834402,0 -1.596457,-0.34727 -0.921219,-0.41961 -1.442117,-1.26848 -0.506429,-0.81993 -0.506429,-1.80868 0,-1.1479 0.651123,-2.02571 0.578776,-0.78135 1.557872,-1.14791 0.655946,-0.2508 1.456586,-0.2508 z m -0.458197,1.38424 q -0.405144,0 -0.641477,0.36173 -0.183279,0.2701 -0.183279,0.64148 0,0.54501 0.221864,1.26366 0.221864,0.71383 0.559484,1.26849 0.149517,0.23633 0.366558,0.3762 0.221864,0.13987 0.448551,0.13987 0.366558,0 0.588422,-0.27492 0.226688,-0.27492 0.226688,-0.72347 0,-0.5836 -0.188102,-1.25884 -0.188103,-0.67523 -0.487137,-1.15272 -0.183279,-0.29422 -0.424436,-0.46303 -0.241156,-0.1688 -0.487136,-0.17845 z"
               style="font-style:normal;font-variant:normal;font-weight:normal;font-stretch:normal;font-size:9.87777805px;line-height:1.25;font-family:'Cooper Black';-inkscape-font-specification:'Cooper Black, Normal';font-variant-ligatures:normal;font-variant-caps:normal;font-variant-numeric:normal;font-feature-settings:normal;text-align:start;letter-spacing:0px;word-spacing:0px;writing-mode:lr-tb;text-anchor:start;fill:#ff5555;fill-opacity:1;stroke:none;stroke-width:0.26458332"
               id="path877"
               inkscape:connector-curvature="0" />
            <path
               d="m 24.535626,292.80865 h -0.347265 q -0.303858,0 -0.680062,0.0289 -0.236334,0.0193 -0.327973,0.0193 -0.32315,0 -0.525722,-0.14952 -0.202572,-0.14952 -0.202572,-0.39067 0,-0.16881 0.08682,-0.26045 0.09164,-0.0965 0.294211,-0.15434 0.192925,-0.0482 0.260449,-0.15434 0.06752,-0.11094 0.106109,-0.42444 0.03858,-0.36174 0.06752,-1.40836 0.03376,-1.04662 0.03376,-2.07877 0,-0.40514 -0.0627,-0.54019 -0.0627,-0.13504 -0.294211,-0.21704 -0.332796,-0.1254 -0.332796,-0.42926 0,-0.23633 0.226687,-0.36656 0.231511,-0.13504 0.641477,-0.13504 0.135048,0 0.318327,0.005 0.405143,0.0145 0.588422,0.0145 0.689708,0 1.557872,-0.0434 0.183279,-0.01 0.458198,-0.01 1.104498,0 1.745974,0.2508 0.954981,0.3762 1.437294,1.26366 0.429259,0.78135 0.429259,1.86173 0,0.54501 -0.159163,1.09485 -0.159164,0.54501 -0.429259,0.94533 -0.559484,0.81029 -1.543403,1.13826 -0.578776,0.19293 -1.234722,0.19293 l -0.583599,-0.0193 -0.501606,-0.0145 q -0.583599,-0.0193 -1.027328,-0.0193 z m 1.012858,-5.22827 v 3.7331 q 0,0.30386 0.130225,0.43409 0.130225,0.1254 0.434082,0.1254 1.408355,0 1.408355,-2.14147 0,-1.18167 -0.327973,-1.8328 -0.361735,-0.71864 -1.225076,-0.71864 -0.23151,0 -0.327973,0.0916 -0.09164,0.0916 -0.09164,0.30868 z"
               style="font-style:normal;font-variant:normal;font-weight:normal;font-stretch:normal;font-size:9.87777805px;line-height:1.25;font-family:'Cooper Black';-inkscape-font-specification:'Cooper Black, Normal';font-variant-ligatures:normal;font-variant-caps:normal;font-variant-numeric:normal;font-feature-settings:normal;text-align:start;letter-spacing:0px;word-spacing:0px;writing-mode:lr-tb;text-anchor:start;fill:#ff5555;fill-opacity:1;stroke:none;stroke-width:0.26458332"
               id="path879"
               inkscape:connector-curvature="0" />
            <path
               d="m 33.357138,286.09003 q 0.496782,0 1.302246,0.24598 0.09646,0.0289 0.15434,0.0289 0.04823,0 0.289388,-0.0868 0.07717,-0.0289 0.163987,-0.0289 0.32315,0 0.680061,0.51125 0.361736,0.51126 0.361736,0.97428 0,0.27009 -0.163987,0.4582 -0.159163,0.18327 -0.390674,0.18327 -0.192925,0 -0.313504,-0.0772 -0.120578,-0.0772 -0.530544,-0.45819 -0.578776,-0.54019 -1.13826,-0.54019 -0.270095,0 -0.434082,0.13022 -0.159163,0.13023 -0.159163,0.34244 0,0.41962 0.737939,0.63183 0.998389,0.29421 1.278131,0.42926 1.229899,0.59807 1.229899,1.76045 0,1.02732 -0.839226,1.67845 -0.858517,0.66559 -2.242757,0.66559 -0.617361,0 -1.302246,-0.14469 -0.684885,-0.14952 -0.988742,-0.34727 -0.231511,-0.15434 -0.419613,-0.67042 -0.183279,-0.52089 -0.183279,-1.01285 0,-0.23634 0.09646,-0.35692 0.120578,-0.15434 0.303857,-0.15434 0.183279,0 0.352089,0.18811 0.101286,0.10611 0.47749,0.68006 0.178456,0.27009 0.564307,0.44855 0.390674,0.17846 0.805463,0.17846 0.356912,0 0.578776,-0.13023 0.221864,-0.13505 0.221864,-0.34244 0,-0.19293 -0.173633,-0.3328 -0.173632,-0.13987 -0.564306,-0.26045 -0.689708,-0.21704 -1.051443,-0.39549 -0.361735,-0.18328 -0.675239,-0.4582 -0.762055,-0.67524 -0.762055,-1.53376 0,-0.42443 0.197748,-0.82475 0.197749,-0.40515 0.559484,-0.69936 0.810286,-0.68006 1.977485,-0.68006 z"
               style="font-style:normal;font-variant:normal;font-weight:normal;font-stretch:normal;font-size:9.87777805px;line-height:1.25;font-family:'Cooper Black';-inkscape-font-specification:'Cooper Black, Normal';font-variant-ligatures:normal;font-variant-caps:normal;font-variant-numeric:normal;font-feature-settings:normal;text-align:start;letter-spacing:0px;word-spacing:0px;writing-mode:lr-tb;text-anchor:start;fill:#ff5555;fill-opacity:1;stroke:none;stroke-width:0.26458332"
               id="path881"
               inkscape:connector-curvature="0" />
            <path
               d="m 38.884451,286.11897 q 1.504818,0 1.504818,0.62218 0,0.16881 -0.07717,0.27492 -0.07717,0.10611 -0.294211,0.23633 -0.188102,0.11576 -0.241157,0.30386 -0.04823,0.1881 -0.04823,0.76206 0,0.33762 0.125401,0.41479 0.07235,0.0482 0.217041,0.0579 0.149517,0.01 0.694532,0.01 0.496782,0 0.617361,-0.053 0.120578,-0.0531 0.120578,-0.26528 0,-0.63665 -0.05788,-0.88745 -0.05788,-0.25081 -0.226687,-0.34245 -0.212218,-0.12057 -0.279742,-0.20257 -0.06752,-0.0868 -0.06752,-0.22668 0,-0.19775 0.149518,-0.35692 0.149517,-0.16398 0.390673,-0.22186 0.501606,-0.12058 1.258838,-0.12058 0.887457,0 1.30707,0.16399 0.424435,0.15916 0.424435,0.5016 0,0.28939 -0.299034,0.43409 -0.188102,0.0868 -0.24598,0.16881 -0.05788,0.0772 -0.09164,0.29421 -0.01929,0.12058 -0.04823,1.07073 -0.02894,0.95016 -0.02894,1.50964 0,0.9791 0.07235,1.24437 0.03858,0.1447 0.08682,0.19293 0.04823,0.0482 0.303857,0.19292 0.18328,0.10129 0.18328,0.30868 0,0.36656 -0.438906,0.53537 -0.434082,0.16399 -1.413178,0.16399 -0.858518,0 -1.268484,-0.16881 -0.371381,-0.15434 -0.371381,-0.47749 0,-0.27492 0.284565,-0.42926 0.13987,-0.0772 0.188102,-0.15434 0.05305,-0.0772 0.101286,-0.28457 0.08682,-0.40514 0.08682,-0.99356 0,-0.30386 -0.09164,-0.37621 -0.08682,-0.0723 -0.46302,-0.0723 -0.863341,0 -1.099675,0.0965 -0.09646,0.0386 -0.120578,0.22669 -0.02894,0.23151 -0.02894,0.56913 0,0.54983 0.15434,0.79099 0.05306,0.0772 0.250803,0.19775 0.202572,0.11575 0.202572,0.38103 0,0.33762 -0.467844,0.51607 -0.467844,0.17846 -1.336008,0.17846 -0.790994,0 -1.2926,-0.16399 -0.217041,-0.0723 -0.342443,-0.20257 -0.120578,-0.13505 -0.120578,-0.29421 0,-0.15917 0.07717,-0.24598 0.07717,-0.0868 0.33762,-0.22187 0.135047,-0.0675 0.188102,-0.17363 0.05788,-0.10611 0.08682,-0.35691 0.07235,-0.56431 0.07235,-1.47588 0,-0.16881 -0.0048,-0.40032 -0.01929,-1.15755 -0.01929,-1.32154 0.0048,-0.41479 -0.07235,-0.54501 -0.07235,-0.13505 -0.390674,-0.29421 -0.212218,-0.10129 -0.212218,-0.30386 0,-0.48714 0.945334,-0.67524 0.549837,-0.11093 1.128613,-0.11093 z"
               style="font-style:normal;font-variant:normal;font-weight:normal;font-stretch:normal;font-size:9.87777805px;line-height:1.25;font-family:'Cooper Black';-inkscape-font-specification:'Cooper Black, Normal';font-variant-ligatures:normal;font-variant-caps:normal;font-variant-numeric:normal;font-feature-settings:normal;text-align:start;letter-spacing:0px;word-spacing:0px;writing-mode:lr-tb;text-anchor:start;fill:#ff5555;fill-opacity:1;stroke:none;stroke-width:0.26458332"
               id="path883"
               inkscape:connector-curvature="0" />
            <path
               d="m 50.971222,289.47587 0.911573,1.95337 q 0.130224,0.27009 0.217041,0.35691 0.08682,0.082 0.265272,0.11093 0.347266,0.0531 0.347266,0.35209 0,0.35209 -0.424436,0.50643 -0.424436,0.15434 -1.389063,0.15434 -1.090028,0 -1.615749,-0.0916 -0.241157,-0.0434 -0.385851,-0.17363 -0.139871,-0.13505 -0.139871,-0.32315 0,-0.1447 0.07235,-0.22187 0.07717,-0.082 0.279742,-0.14951 0.226687,-0.0772 0.226687,-0.26045 0,-0.32315 -0.390674,-0.38103 -0.419612,-0.0579 -1.181668,-0.0579 -0.641476,0 -0.766878,0.0772 -0.07717,0.0482 -0.135048,0.17364 -0.05788,0.1254 -0.05788,0.24115 0,0.10611 0.03858,0.13987 0.04341,0.0289 0.270095,0.10129 0.294212,0.0868 0.294212,0.34726 0,0.57396 -1.374594,0.57396 -0.781347,0 -1.147905,-0.10611 -0.33762,-0.10129 -0.33762,-0.44373 0,-0.14952 0.07235,-0.23151 0.07717,-0.082 0.270096,-0.14952 0.313503,-0.11093 0.472667,-0.30868 0.163986,-0.20257 0.463021,-0.85852 l 0.680062,-1.49034 q 0.376204,-0.81994 0.501605,-1.22508 0.130225,-0.40997 0.135048,-0.80064 0.0048,-0.41479 0.04823,-0.57395 0.04823,-0.16399 0.207394,-0.31833 0.332797,-0.33762 0.848872,-0.33762 0.487136,0 0.930865,0.38103 0.617361,0.5209 1.794205,3.03375 z m -3.356901,0.60771 h 0.945335 q 0.260449,0 0.260449,-0.11575 0,-0.15916 -0.361735,-0.78135 -0.163987,-0.28456 -0.250803,-0.38103 -0.08682,-0.0965 -0.183279,-0.0965 -0.173633,0 -0.289388,0.32315 -0.01929,0.0434 -0.139871,0.34244 -0.202572,0.49196 -0.202572,0.58843 0,0.12057 0.221864,0.12057 z"
               style="font-style:normal;font-variant:normal;font-weight:normal;font-stretch:normal;font-size:9.87777805px;line-height:1.25;font-family:'Cooper Black';-inkscape-font-specification:'Cooper Black, Normal';font-variant-ligatures:normal;font-variant-caps:normal;font-variant-numeric:normal;font-feature-settings:normal;text-align:start;letter-spacing:0px;word-spacing:0px;writing-mode:lr-tb;text-anchor:start;fill:#ff5555;fill-opacity:1;stroke:none;stroke-width:0.26458332"
               id="path885"
               inkscape:connector-curvature="0" />
            <path
               d="m 56.001752,288.33279 v 2.21382 q 0,0.74758 0.130225,0.96462 0.159163,0.25563 0.670416,0.25563 0.549837,0 0.868164,-0.24116 0.318326,-0.24116 0.443728,-0.75241 0.07235,-0.3135 0.327973,-0.3135 0.255626,0 0.41479,0.23151 0.163986,0.22669 0.163986,0.59324 0,0.59807 -0.443728,1.27813 -0.139871,0.21705 -0.24598,0.29422 -0.106109,0.082 -0.255626,0.082 l -1.070736,-0.13023 h -3.37137 q -0.332797,0 -0.467844,-0.0772 -0.197749,-0.11093 -0.197749,-0.33279 0,-0.13505 0.0627,-0.19775 0.06752,-0.0675 0.318327,-0.1881 0.274918,-0.13023 0.352088,-0.36656 0.0627,-0.19775 0.0627,-1.15273 0,-0.44373 -0.02412,-1.27813 -0.02412,-0.80064 -0.02894,-1.20578 0,-0.38585 -0.0627,-0.52572 -0.05788,-0.1447 -0.250803,-0.2074 -0.318327,-0.11093 -0.405143,-0.17846 -0.15434,-0.12057 -0.15434,-0.27491 0,-0.35209 0.583599,-0.53537 0.496782,-0.15917 1.331185,-0.15917 0.935688,0 1.398708,0.0965 0.598069,0.13022 0.598069,0.5209 0,0.15916 -0.08199,0.23633 -0.07717,0.0772 -0.385851,0.20739 -0.183279,0.082 -0.23151,0.27975 -0.04823,0.19774 -0.04823,0.86334 z"
               style="font-style:normal;font-variant:normal;font-weight:normal;font-stretch:normal;font-size:9.87777805px;line-height:1.25;font-family:'Cooper Black';-inkscape-font-specification:'Cooper Black, Normal';font-variant-ligatures:normal;font-variant-caps:normal;font-variant-numeric:normal;font-feature-settings:normal;text-align:start;letter-spacing:0px;word-spacing:0px;writing-mode:lr-tb;text-anchor:start;fill:#ff5555;fill-opacity:1;stroke:none;stroke-width:0.26458332"
               id="path887"
               inkscape:connector-curvature="0" />
            <path
               d="m 65.537087,289.47587 0.911572,1.95337 q 0.130225,0.27009 0.217041,0.35691 0.08682,0.082 0.265273,0.11093 0.347265,0.0531 0.347265,0.35209 0,0.35209 -0.424435,0.50643 -0.424436,0.15434 -1.389063,0.15434 -1.090028,0 -1.61575,-0.0916 -0.241157,-0.0434 -0.385851,-0.17363 -0.13987,-0.13505 -0.13987,-0.32315 0,-0.1447 0.07235,-0.22187 0.07717,-0.082 0.279741,-0.14951 0.226688,-0.0772 0.226688,-0.26045 0,-0.32315 -0.390674,-0.38103 -0.419613,-0.0579 -1.181668,-0.0579 -0.641477,0 -0.766878,0.0772 -0.07717,0.0482 -0.135048,0.17364 -0.05788,0.1254 -0.05788,0.24115 0,0.10611 0.03859,0.13987 0.04341,0.0289 0.270096,0.10129 0.294211,0.0868 0.294211,0.34726 0,0.57396 -1.374593,0.57396 -0.781348,0 -1.147906,-0.10611 -0.337619,-0.10129 -0.337619,-0.44373 0,-0.14952 0.07235,-0.23151 0.07717,-0.082 0.270095,-0.14952 0.313504,-0.11093 0.472667,-0.30868 0.163987,-0.20257 0.463021,-0.85852 l 0.680062,-1.49034 q 0.376205,-0.81994 0.501606,-1.22508 0.130225,-0.40997 0.135048,-0.80064 0.0048,-0.41479 0.04823,-0.57395 0.04823,-0.16399 0.207395,-0.31833 0.332796,-0.33762 0.848871,-0.33762 0.487137,0 0.930865,0.38103 0.617361,0.5209 1.794206,3.03375 z m -3.356901,0.60771 h 0.945334 q 0.260449,0 0.260449,-0.11575 0,-0.15916 -0.361735,-0.78135 -0.163986,-0.28456 -0.250803,-0.38103 -0.08682,-0.0965 -0.183279,-0.0965 -0.173633,0 -0.289388,0.32315 -0.01929,0.0434 -0.139871,0.34244 -0.202571,0.49196 -0.202571,0.58843 0,0.12057 0.221864,0.12057 z"
               style="font-style:normal;font-variant:normal;font-weight:normal;font-stretch:normal;font-size:9.87777805px;line-height:1.25;font-family:'Cooper Black';-inkscape-font-specification:'Cooper Black, Normal';font-variant-ligatures:normal;font-variant-caps:normal;font-variant-numeric:normal;font-feature-settings:normal;text-align:start;letter-spacing:0px;word-spacing:0px;writing-mode:lr-tb;text-anchor:start;fill:#ff5555;fill-opacity:1;stroke:none;stroke-width:0.26458332"
               id="path889"
               inkscape:connector-curvature="0" />
          </g>
        </g>
      </g>
    </g>
  </g>
</svg>
